<svg xmlns="http://www.w3.org/2000/svg" width="269.794" height="311.955" viewBox="0 0 269.794 311.955">
  <g id="PSD_To_HTML_2" data-name="PSD To HTML 2" transform="translate(-34.599)">
    <g id="Group_16997" data-name="Group 16997" transform="translate(40.691 201.897)">
      <path id="Path_73062" data-name="Path 73062" d="M94.7,331.366H56.456A11.889,11.889,0,0,0,44.6,343.215V423.5a11.874,11.874,0,0,0,11.858,11.832H236.7A11.89,11.89,0,0,0,248.577,423.5V343.215A11.9,11.9,0,0,0,236.7,331.366Z" transform="translate(-44.598 -331.366)" fill="#01c0fa" fill-rule="evenodd"/>
    </g>
    <g id="Group_16998" data-name="Group 16998" transform="translate(231.029 6.093)">
      <path id="Path_73063" data-name="Path 73063" d="M356.992,10V50.574A17.107,17.107,0,0,0,374.061,67.6h50.2Z" transform="translate(-356.992 -10)" fill="#ffc850" fill-rule="evenodd"/>
    </g>
    <g id="Group_16999" data-name="Group 16999" transform="translate(128.35 73.457)">
      <path id="Path_73064" data-name="Path 73064" d="M247.177,122.462l-55.24,30.262c-4.12,2.245-4.64,5.648-1.177,7.548L211.048,171.4l37.306,20.434c3.462,1.9,9.677,1.606,13.78-.639L298.28,171.4l19.112-10.485c4.12-2.245,4.64-5.648,1.177-7.548l-57.595-31.54c-3.479-1.9-9.677-1.624-13.8.639Z" transform="translate(-188.469 -120.563)" fill="#01c0fa" fill-rule="evenodd"/>
    </g>
    <g id="Group_17000" data-name="Group 17000" transform="translate(90.79 6.093)">
      <path id="Path_73065" data-name="Path 73065" d="M126.823,19.413V205.8h142A11.9,11.9,0,0,1,280.7,217.654v77.278h44.2a9.446,9.446,0,0,0,9.435-9.413V67.605h-50.2a17.107,17.107,0,0,1-17.069-17.031V10h-130.8a9.446,9.446,0,0,0-9.435,9.413ZM167.851,146.87c-4.12-2.263-4.64-5.666-1.177-7.566L186.963,128.2l-20.289-11.124c-3.462-1.9-2.943-5.3,1.177-7.548l55.24-30.262c4.12-2.263,10.318-2.539,13.8-.639l57.595,31.54c3.462,1.9,2.943,5.3-1.177,7.548L274.195,128.2l19.112,10.468c4.12,2.263,4.64,5.648,1.177,7.566l-57.595,31.54c-3.48,1.9-9.677,1.606-13.8-.639Z" transform="translate(-126.823 -10)" fill="#fff" fill-rule="evenodd"/>
    </g>
    <g id="Group_17001" data-name="Group 17001" transform="translate(128.35 124.291)">
      <path id="Path_73066" data-name="Path 73066" d="M248.354,224.428l-37.306-20.434L190.759,215.1c-3.462,1.9-2.943,5.3,1.177,7.565l55.24,30.262c4.12,2.245,10.318,2.539,13.8.639l57.595-31.54c3.462-1.917,2.943-5.3-1.177-7.566L298.28,203.994l-36.146,19.794c-4.1,2.245-10.318,2.539-13.78.639Z" transform="translate(-188.469 -203.994)" fill="#ffc850" fill-rule="evenodd"/>
    </g>
    <g id="Group_17002" data-name="Group 17002" transform="translate(34.599 0)">
      <path id="Path_73067" data-name="Path 73067" d="M183.921,173.263a9.714,9.714,0,0,0-5.452,8.531c0,3.862,2.415,7.4,6.633,9.72l55.252,30.268A23.133,23.133,0,0,0,251.2,224.4a18.607,18.607,0,0,0,8.79-1.987l57.62-31.554a9.733,9.733,0,0,0,5.432-8.543c-.007-3.851-2.423-7.384-6.633-9.7l-9.368-5.131,9.357-5.127c4.217-2.3,6.639-5.832,6.645-9.7a9.71,9.71,0,0,0-5.457-8.546l-57.6-31.543c-5.281-2.884-13.728-2.605-19.645.643l-55.229,30.255c-4.217,2.3-6.639,5.833-6.645,9.7a9.708,9.708,0,0,0,5.453,8.543l0,0,10.539,5.775-10.537,5.768,0,0Zm9.312-20.34L246.2,123.9c2.633-1.445,6.572-1.381,7.937-.636l54.139,29.649L255.3,181.948c-2.6,1.422-6.6,1.37-7.927.641Zm13.907,21.522.042.016,34.333,18.812a18.529,18.529,0,0,0,8.786,1.995,23.075,23.075,0,0,0,10.853-2.632l33.137-18.158.08-.033,13.923,7.626-54.149,29.653c-1.365.745-5.309.8-7.949-.635l-52.979-29.023Z" transform="translate(-90.81 -43.208)"/>
      <path id="Path_73068" data-name="Path 73068" d="M105,363.976H86.317a6.093,6.093,0,0,0-6.093,6.093v26.645a6.086,6.086,0,0,0-.052.8,6.184,6.184,0,0,0,.052.8v23.8a6.093,6.093,0,0,0,12.186,0v-18.5H103.8c12.707,0,19.564-10.472,19.564-20.325C123.365,373.689,117.056,363.976,105,363.976ZM103.8,391.421H92.41v-15.26H105c5.886,0,6.184,5.932,6.184,7.121C111.179,384.115,110.973,391.421,103.8,391.421Z" transform="translate(-52.405 -142.21)"/>
      <path id="Path_73069" data-name="Path 73069" d="M189.718,390h-2.891a6.922,6.922,0,1,1,0-13.844h15.355a6.093,6.093,0,1,0,0-12.186H186.827a19.108,19.108,0,1,0,0,38.216h2.891a6.914,6.914,0,1,1,0,13.828H173.774a6.093,6.093,0,0,0,0,12.186h15.944a19.1,19.1,0,1,0,0-38.2Z" transform="translate(-86.596 -142.21)"/>
      <path id="Path_73070" data-name="Path 73070" d="M283.835,363.976H272.081a6.093,6.093,0,0,0-6.093,6.093v52.043a6.093,6.093,0,0,0,6.093,6.093h11.754a29.557,29.557,0,0,0,29.55-29.5V393.49A29.566,29.566,0,0,0,283.835,363.976ZM301.2,398.707a17.357,17.357,0,0,1-17.364,17.312h-5.661V376.162h5.661A17.366,17.366,0,0,1,301.2,393.49Z" transform="translate(-125.006 -142.21)"/>
      <path id="Path_73071" data-name="Path 73071" d="M304.391,63.565c0-.024,0-.047,0-.07q-.006-.218-.026-.381a6.092,6.092,0,0,0-2.1-4.044L234.992,1.465A6.078,6.078,0,0,0,231.6.04a3.278,3.278,0,0,0-.568-.04h-130.8A15.535,15.535,0,0,0,84.7,15.506V75.253a6.093,6.093,0,1,0,12.186,0V15.506a3.335,3.335,0,0,1,3.342-3.321H224.936V46.667A23.169,23.169,0,0,0,248.1,69.791h44.11v211.82a3.335,3.335,0,0,1-3.341,3.321h-38.1V213.746A17.975,17.975,0,0,0,232.794,195.8H96.883V129.973a6.093,6.093,0,0,0-12.186,0V195.8H52.55A17.966,17.966,0,0,0,34.6,213.746V294.03A17.958,17.958,0,0,0,52.55,311.955H232.795a17.982,17.982,0,0,0,17.7-14.837h38.375a15.534,15.534,0,0,0,15.527-15.507V63.7c0-.048,0-.088,0-.133ZM248.1,57.605a10.97,10.97,0,0,1-10.976-10.939V19.332l44.7,38.273ZM238.577,294.03a5.767,5.767,0,0,1-5.783,5.739H52.55a5.759,5.759,0,0,1-5.765-5.739V213.746a5.767,5.767,0,0,1,5.765-5.756H232.795a5.846,5.846,0,0,1,5.783,5.756V294.03Z" transform="translate(-34.599 0)"/>
      <path id="Path_73072" data-name="Path 73072" d="M122.916,170.609a6.1,6.1,0,1,0-6.093-6.1v.017A6.085,6.085,0,0,0,122.916,170.609Z" transform="translate(-66.725 -61.895)"/>
    </g>
  </g>
</svg>
